<svg viewBox="0 0 300 100" xmlns="http://www.w3.org/2000/svg">
  <rect width="300" height="100" fill="#030712"/>
  <g opacity="0.5">
    <path d="M0 15 L25 0 L50 15 L25 30 Z" fill="#3b82f6" transform="translate(10,5)"/>
    <path d="M0 15 L25 0 L50 15 L25 30 Z" fill="#8b5cf6" transform="translate(45,35)"/>
    <path d="M0 15 L25 0 L50 15 L25 30 Z" fill="#ec4899" transform="translate(85,10)"/>
    <path d="M0 15 L25 0 L50 15 L25 30 Z" fill="#10b981" transform="translate(130,55)"/>
    <path d="M0 15 L25 0 L50 15 L25 30 Z" fill="#f59e0b" transform="translate(170,-5)"/>
    <path d="M0 15 L25 0 L50 15 L25 30 Z" fill="#3b82f6" transform="translate(210,65)"/>
    <path d="M0 15 L25 0 L50 15 L25 30 Z" fill="#8b5cf6" transform="translate(250,20)"/>
    <path d="M0 15 L25 0 L50 15 L25 30 Z" fill="#ef4444" transform="translate(30,-15)"/>
    <path d="M0 15 L25 0 L50 15 L25 30 Z" fill="#10b981" transform="translate(110,80)"/>
    <path d="M0 15 L25 0 L50 15 L25 30 Z" fill="#ec4899" transform="translate(190,40)"/>
  </g>
  <g stroke="#ffffff" stroke-width="0.15" fill="none" opacity="0.3">
    <circle cx="150" cy="50" r="120"/>
    <circle cx="150" cy="50" r="100"/>
    <circle cx="150" cy="50" r="80"/>
    <circle cx="150" cy="50" r="60"/>
    <circle cx="150" cy="50" r="40"/>
    <circle cx="150" cy="50" r="20"/>
    <path d="M0 0 L300 100 M300 0 L0 100 M150 0 V100 M0 50 H300"/>
  </g>
</svg>